<?xml version="1.0" standalone="no"?>
<!DOCTYPE svg PUBLIC "-//W3C//DTD SVG 1.0//EN" "http://www.w3.org/TR/2001/REC-SVG-20010904/DTD/svg10.dtd">
<svg xmlns="http://www.w3.org/2000/svg" xmlns:xlink="http://www.w3.org/1999/xlink" id="body_1" width="24" height="24">

<g transform="matrix(0.42857143 0 0 0.42857143 0 0)">
    <path d="M38.5235 11.125L33.1797 11.125L33.1797 11.0078L38.6407 3.8125C 39.1329 3.1795 39.3204 2.7811 39.3204 2.3592C 39.3204 1.6329 38.7578 1.1875 37.9844 1.1875L37.9844 1.1875L30.461 1.1875C 29.7578 1.1875 29.2188 1.6565 29.2188 2.3827C 29.2188 3.1565 29.7578 3.6016 30.461 3.6016L30.461 3.6016L35.5 3.6016L35.5 3.7187L29.9688 10.8906C 29.4766 11.5469 29.2891 11.875 29.2891 12.3672C 29.2891 13.0469 29.8282 13.5625 30.6016 13.5625L30.6016 13.5625L38.5235 13.5625C 39.2266 13.5625 39.7422 13.0938 39.7422 12.3203C 39.7422 11.6172 39.2266 11.125 38.5235 11.125zM49.4924 20.1016L45.7188 20.1016L45.7188 20.0078L49.6095 14.9219C 50.0545 14.3125 50.2422 13.9609 50.2422 13.5391C 50.2422 12.8594 49.7031 12.4141 48.9766 12.4141L48.9766 12.4141L43.2344 12.4141C 42.5782 12.4141 42.086 12.8828 42.086 13.5625C 42.086 14.2891 42.5782 14.7344 43.2344 14.7344L43.2344 14.7344L46.6329 14.7344L46.6329 14.8281L42.7657 19.8906C 42.3204 20.4531 42.1563 20.8281 42.1563 21.2969C 42.1563 21.9297 42.6485 22.4219 43.3751 22.4219L43.3751 22.4219L49.4924 22.4219C 50.1721 22.4219 50.6406 21.9765 50.6406 21.25C 50.6406 20.5703 50.1721 20.1016 49.4924 20.1016zM25.8438 54.8125C 34.4219 54.8125 41.3594 50.5 44.5235 43.1641C 44.9453 42.1562 44.8047 41.3828 44.3594 40.9141C 43.9375 40.5156 43.2344 40.4219 42.3907 40.75C 40.6329 41.4531 38.4766 41.8516 35.7813 41.8516C 25.3047 41.8516 18.5547 35.3125 18.5547 25.0234C 18.5547 22.1875 19.0938 19.375 19.8204 17.8984C 20.2891 16.9609 20.2422 16.1641 19.8438 15.6719C 19.3985 15.1562 18.6016 14.9922 17.5 15.4375C 10.3047 18.3672 5.3594 25.8672 5.3594 34.6328C 5.3594 46.0469 13.75 54.8125 25.8438 54.8125zM25.8907 51.25C 15.8829 51.25 8.9219 43.9609 8.9219 34.3516C 8.9219 28.4453 11.6641 23.2422 16.0235 19.9141C 15.461 21.4375 15.1329 23.7812 15.1329 26.0312C 15.1329 37.5625 23.1016 45.2969 34.8907 45.2969C 37 45.2969 38.9219 45.0391 39.9063 44.6875C 36.9766 48.7422 31.75 51.25 25.8907 51.25zM39.1563 28.1172L35.9453 28.1172L35.9453 28.0234L39.25 23.6406C 39.6719 23.0312 39.8594 22.7265 39.8594 22.3281C 39.8594 21.6484 39.3438 21.25 38.6641 21.25L38.6641 21.25L33.6016 21.25C 32.9688 21.25 32.5 21.6953 32.5 22.3516C 32.5 23.0312 32.9688 23.4531 33.6016 23.4531L33.6016 23.4531L36.4141 23.4531L36.4141 23.5469L33.1563 27.9062C 32.7344 28.4687 32.5704 28.7969 32.5704 29.2422C 32.5704 29.8516 33.0391 30.2969 33.7188 30.2969L33.7188 30.2969L39.1563 30.2969C 39.7891 30.2969 40.2344 29.875 40.2344 29.1953C 40.2344 28.5391 39.7891 28.1172 39.1563 28.1172z" stroke="none" fill="#000000" fill-rule="nonzero" />
</g>
</svg>