<?xml version="1.0" standalone="no"?>
<!DOCTYPE svg PUBLIC "-//W3C//DTD SVG 1.0//EN" "http://www.w3.org/TR/2001/REC-SVG-20010904/DTD/svg10.dtd">
<svg xmlns="http://www.w3.org/2000/svg" xmlns:xlink="http://www.w3.org/1999/xlink" id="body_1" width="24" height="24">

<g transform="matrix(0.42857143 0 0 0.42857143 0 0)">
    <path d="M30.0391 4.6094C 30.0391 3.5078 29.1016 2.5703 28.0001 2.5703C 26.8985 2.5703 25.961 3.5078 25.961 4.6094L25.961 4.6094L25.961 9.5312C 25.961 10.6328 26.8985 11.5703 28.0001 11.5703C 29.1016 11.5703 30.0391 10.6328 30.0391 9.5312L30.0391 9.5312L30.0391 4.6094zM39.5782 13.539C 38.8047 14.3359 38.8047 15.6484 39.5782 16.4219C 40.3751 17.2187 41.6642 17.2422 42.4844 16.4219L42.4844 16.4219L45.9766 12.9297C 46.7737 12.1328 46.7737 10.8203 45.9766 10.0234C 45.2032 9.25 43.8907 9.25 43.0938 10.0234zM13.5157 16.4219C 14.2891 17.2187 15.6016 17.2187 16.3985 16.4219C 17.172 15.6719 17.172 14.3125 16.422 13.539L16.422 13.539L12.9298 10.0234C 12.1798 9.2734 10.8438 9.25 10.0469 10.0234C 9.2735 10.7968 9.2735 12.1328 10.0235 12.9063zM28.0001 16.0468C 21.461 16.0468 16.0469 21.4609 16.0469 28C 16.0469 34.539 21.461 39.9766 28.0001 39.9766C 34.5157 39.9766 39.9298 34.539 39.9298 28C 39.9298 21.4609 34.5157 16.0468 28.0001 16.0468zM28.0001 19.6328C 32.5704 19.6328 36.3673 23.4297 36.3673 28C 36.3673 32.5703 32.5704 36.3906 28.0001 36.3906C 23.4063 36.3906 19.6094 32.5703 19.6094 28C 19.6094 23.4297 23.4063 19.6328 28.0001 19.6328zM51.3203 30.039C 52.4219 30.039 53.3593 29.1016 53.3593 28C 53.3593 26.8984 52.4219 25.9609 51.3203 25.9609L51.3203 25.9609L46.422 25.9609C 45.3204 25.9609 44.3829 26.8984 44.3829 28C 44.3829 29.1016 45.3204 30.039 46.422 30.039zM4.6798 25.9609C 3.5782 25.9609 2.6407 26.8984 2.6407 28C 2.6407 29.1016 3.5782 30.039 4.6798 30.039L4.6798 30.039L9.5782 30.039C 10.6798 30.039 11.6173 29.1016 11.6173 28C 11.6173 26.8984 10.6798 25.9609 9.5782 25.9609zM42.461 39.6016C 41.6642 38.8281 40.3751 38.8281 39.5782 39.6016C 38.8047 40.375 38.8047 41.6875 39.5782 42.4844L39.5782 42.4844L43.0938 46C 43.8907 46.7734 45.2032 46.75 45.9766 45.9766C 46.7737 45.2031 46.7737 43.8906 45.9766 43.0937zM10.0235 43.0703C 9.2266 43.8437 9.2266 45.1797 10.0001 45.9531C 10.7735 46.7266 12.1094 46.75 12.9063 45.9766L12.9063 45.9766L16.3985 42.4844C 17.172 41.7109 17.172 40.3984 16.422 39.6016C 15.6485 38.8281 14.3126 38.8281 13.5157 39.6016zM30.0391 46.4687C 30.0391 45.3672 29.1016 44.4297 28.0001 44.4297C 26.8985 44.4297 25.961 45.3672 25.961 46.4687L25.961 46.4687L25.961 51.3906C 25.961 52.4922 26.8985 53.4297 28.0001 53.4297C 29.1016 53.4297 30.0391 52.4922 30.0391 51.3906z" stroke="none" fill="#000000" fill-rule="nonzero" />
</g>
</svg>